<svg xmlns="http://www.w3.org/2000/svg" xmlns:xlink="http://www.w3.org/1999/xlink" fill="none" version="1.1" width="477" height="444" viewBox="0 0 477 444"><g><path d="M238.5,3.15481e-14L261.146,34.9175L291.571,5.566L305.302,44.2986L341.981,21.9849L346.108,62.5904L387.202,48.4334L381.519,88.8756L424.967,83.5853L409.758,121.836L453.381,125.678L429.409,159.82L471.02,172.6L439.487,200.921L477,222L439.487,243.079L471.02,271.4L429.409,284.18L453.381,318.322L409.758,322.164L424.967,360.415L381.519,355.124L387.202,395.567L346.108,381.41L341.981,422.015L305.302,399.701L291.571,438.434L261.146,409.082L238.5,444L215.854,409.082L185.429,438.434L171.698,399.701L135.019,422.015L130.892,381.41L89.7977,395.567L95.4813,355.124L52.0332,360.415L67.2424,322.164L23.6189,318.322L47.5911,284.18L5.9797,271.4L37.5127,243.079L6.77858e-14,222L37.5127,200.921L5.9797,172.6L47.5911,159.82L23.6189,125.678L67.2424,121.836L52.0331,83.5853L95.4812,88.8757L89.7976,48.4334L130.892,62.5904L135.019,21.9849L171.698,44.2986L185.429,5.56601L215.854,34.9175L238.5,3.15481e-14Z" fill="#11C964" fill-opacity="1"/></g></svg>