<?xml version="1.0" encoding="UTF-8"?>
<svg xmlns="http://www.w3.org/2000/svg" width="67" height="12" viewBox="0 0 67 12" role="presentation" focusable="false">
  <path d="M45.646 3.547c1.748 0 2.903.96 2.903 2.409v5.048h-1.44V9.793h-.036c-.424.819-1.35 1.337-2.31 1.337-1.435 0-2.437-.896-2.437-2.22 0-1.288.982-2.065 2.722-2.17l2.005-.112v-.56c0-.82-.536-1.282-1.448-1.282-.836 0-1.42.4-1.539 1.037H42.66c.042-1.33 1.274-2.276 2.986-2.276zm-22.971 0c2.123 0 3.474 1.456 3.474 3.774 0 2.325-1.344 3.774-3.474 3.774s-3.474-1.45-3.474-3.774c0-2.318 1.358-3.774 3.474-3.774zm15.689 0c1.88 0 3.05 1.19 3.174 2.626h-1.434c-.132-.778-.737-1.359-1.726-1.359-1.156 0-1.922.974-1.922 2.507 0 1.568.773 2.514 1.936 2.514.933 0 1.545-.47 1.712-1.324h1.448c-.167 1.548-1.399 2.584-3.174 2.584-2.089 0-3.453-1.435-3.453-3.774 0-2.29 1.364-3.774 3.439-3.774zm14.263.007c1.622 0 2.785.903 2.82 2.206h-1.414c-.062-.652-.612-1.05-1.448-1.05-.814 0-1.357.377-1.357.952 0 .44.362.735 1.12.924l1.233.287c1.476.357 2.033.903 2.033 1.981 0 1.33-1.254 2.241-3.043 2.241-1.726 0-2.889-.89-3-2.234h1.49c.104.708.668 1.086 1.58 1.086.898 0 1.462-.371 1.462-.96 0-.455-.279-.7-1.044-.896L51.75 7.77c-1.323-.322-1.991-1.001-1.991-2.024 0-1.302 1.163-2.191 2.868-2.191zm11.396 0c1.622 0 2.784.903 2.82 2.206h-1.414c-.063-.652-.613-1.05-1.448-1.05-.815 0-1.358.377-1.358.952 0 .44.362.735 1.121.924l1.232.287C66.452 7.23 67 7.776 67 8.854c0 1.33-1.244 2.241-3.033 2.241-1.726 0-2.889-.89-3-2.234h1.49c.104.708.668 1.086 1.58 1.086.898 0 1.461-.371 1.461-.96 0-.455-.278-.7-1.044-.896l-1.308-.322c-1.323-.322-1.992-1.001-1.992-2.024 0-1.302 1.163-2.191 2.869-2.191zM6.368 2.776l.221.001c.348.028 1.352.135 1.994 1.091-.053.04-1.19.7-1.177 2.088.013 1.656 1.445 2.209 1.458 2.222-.013.041-.227.782-.749 1.55-.455.673-.924 1.333-1.673 1.346-.723.014-.964-.43-1.793-.43-.83 0-1.098.417-1.78.444-.723.027-1.272-.715-1.727-1.388C.205 8.34-.504 5.862.46 4.191c.468-.835 1.325-1.36 2.248-1.373.71-.013 1.365.471 1.793.471.429 0 1.191-.565 2.088-.512zM33.884.9v10.104h-1.462V9.751h-.028c-.432.84-1.267 1.33-2.332 1.33-1.83 0-3.077-1.484-3.077-3.76s1.246-3.76 3.063-3.76c1.051 0 1.88.49 2.297 1.302h.028V.9h1.51zm24.849.995v1.743h1.392v1.197h-1.392v4.061c0 .63.279.925.891.925.153 0 .397-.021.494-.035v1.19c-.167.042-.5.07-.835.07-1.483 0-2.06-.56-2.06-1.989V4.835h-1.066V3.638h1.065V1.895h1.511zM15.665.9c1.949 0 3.306 1.352 3.306 3.32 0 1.974-1.385 3.332-3.355 3.332h-2.158v3.452h-1.56V.9h3.767zm31.388 6.778l-1.803.112c-.898.056-1.406.448-1.406 1.078 0 .645.529 1.065 1.336 1.065 1.051 0 1.873-.729 1.873-1.688v-.567zM22.675 4.793c-1.218 0-1.942.946-1.942 2.528 0 1.596.724 2.528 1.942 2.528s1.942-.932 1.942-2.528c0-1.59-.724-2.528-1.942-2.528zm7.784.056c-1.17 0-1.935.974-1.935 2.472 0 1.512.765 2.479 1.935 2.479 1.155 0 1.928-.98 1.928-2.479 0-1.484-.773-2.472-1.928-2.472zM15.254 2.224h-1.796v4.012h1.789c1.357 0 2.13-.735 2.13-2.01 0-1.274-.773-2.002-2.123-2.002zM6.596.13c.067.649-.188 1.283-.563 1.756-.39.46-1.007.824-1.624.77-.08-.621.228-1.283.577-1.688.389-.473 1.06-.81 1.61-.838z"/>
</svg>
