<?xml version="1.0" encoding="UTF-8"?>
<svg width="150" height="150" viewBox="0 0 150 150" xmlns="http://www.w3.org/2000/svg">
  <path d="M86.2 70.8c-4.1-3-10-4.5-15.9-4.5-5.9 0-11.8 1.5-15.9 4.5-2.1 1.5-2.5 4.5-0.9 6.6 1.5 2.1 4.5 2.5 6.6 0.9 2.7-2 7.2-3 10.2-3s7.5 1 10.2 3c2.1 1.6 5.1 1.2 6.6-0.9 1.6-2.1 1.2-5.1-0.9-6.6z" fill="#FF9900"/>
  <path d="M75 30c-24.8 0-45 20.2-45 45s20.2 45 45 45 45-20.2 45-45-20.2-45-45-45zm0 80c-19.3 0-35-15.7-35-35s15.7-35 35-35 35 15.7 35 35-15.7 35-35 35z" fill="#FF9900"/>
  <path d="M75 50c-13.8 0-25 11.2-25 25s11.2 25 25 25 25-11.2 25-25-11.2-25-25-25zm0 40c-8.3 0-15-6.7-15-15s6.7-15 15-15 15 6.7 15 15-6.7 15-15 15z" fill="#FF9900"/>
</svg>
