<?xml version="1.0" encoding="UTF-8"?>
<svg width="150" height="150" viewBox="0 0 150 150" xmlns="http://www.w3.org/2000/svg">
  <path d="M75 30c-24.853 0-45 20.147-45 45s20.147 45 45 45 45-20.147 45-45-20.147-45-45-45zm20.625 64.687c-.937 0-1.875-.375-2.812-1.125-7.5-4.687-16.875-7.5-27.188-7.5-5.625 0-11.25.75-16.875 2.25-1.875.375-3.75-.75-4.125-2.625-.375-1.875.75-3.75 2.625-4.125 6.375-1.5 12.75-2.25 18.375-2.25 11.25 0 21.563 3 30 8.25 1.875 1.125 2.25 3 1.125 4.875-.75 1.5-1.875 2.25-3.375 2.25zm5.625-13.125c-1.125 1.875-3 2.25-4.687 1.125-9.375-5.625-21.563-9.375-35.625-9.375-7.5 0-15 .75-21.563 2.625-1.875.375-3.75-.75-4.125-2.625-.375-1.875.75-3.75 2.625-4.125 7.5-1.875 15-2.625 23.063-2.625 15 0 28.125 4.125 38.437 10.312 1.875.75 2.25 3 1.125 4.687zm6.563-15c-1.125 1.875-3 2.25-4.687 1.125-10.312-6.375-27.188-10.312-42.188-10.312-8.25 0-16.875 1.125-24.375 3-1.875.375-3.75-.75-4.125-2.625-.375-1.875.75-3.75 2.625-4.125 8.25-1.875 17.812-3 25.875-3 16.875 0 34.687 4.125 46.875 11.25 1.875 1.125 2.25 3.375 1.125 5.25z" fill="#1DB954"/>
</svg>
