<svg xmlns="http://www.w3.org/2000/svg" xmlns:xlink="http://www.w3.org/1999/xlink" fill="none" version="1.1" width="560" height="560" viewBox="0 0 560 560"><defs><clipPath id="master_svg0_39_23"><rect x="0" y="0" width="560" height="560" rx="0"/></clipPath><clipPath id="master_svg1_39_25"><rect x="68" y="52" width="425" height="425" rx="0"/></clipPath></defs><g clip-path="url(#master_svg0_39_23)"><rect x="0" y="0" width="560" height="560" rx="0" fill="#3B82F6" fill-opacity="1"/><g clip-path="url(#master_svg1_39_25)"><g><path d="M475.29178125,423.8750102539062C475.56178125,422.41201025390626,475.56178125,420.9110102539062,475.29178125,419.44801025390626L446.60478125,313.19801025390626C446.58178125,312.78501025390625,446.58178125,312.37101025390626,446.60478125,311.95801025390625L394.89578125,127.08331025390625C393.71778125,122.54639025390625,390.78778125,118.66186025390626,386.74978125,116.28120025390625C382.65278125,113.98643085390626,377.81178125,113.41315025390625,373.29178125,114.68744925390625C367.39178125,116.24267025390625,362.70778125,120.72574025390625,360.89578125,126.55201025390625L303.69778125,312.49001025390623L290.23978124999996,356.4060102539063C285.64378124999996,369.23401025390626,277.31878125000003,380.39601025390624,266.33378125,388.45801025390625C249.95478125,400.52801025390625,230.00378125,406.76301025390626,209.66678124999999,406.16701025390626C160.76658125,406.16701025390626,121.12508125,366.52501025390626,121.12508125,317.6250102539062C121.12508125,307.84501025390625,113.19688125,299.91701025390626,103.41678125,299.91701025390626C93.63676125,299.91701025390626,85.70846765,307.84501025390625,85.70846555,317.6250102539062C84.92992025,350.91001025390625,98.08998125,383.00801025390626,122.01058125,406.16701025390626C145.10878125,429.5340102539063,176.81868125,442.34601025390623,209.66678124999999,441.58301025390625C237.73478125,442.46101025390624,265.26878124999996,433.78201025390626,287.76078125000004,416.9690102539063C304.27278125,404.44301025390627,316.61778125,387.22301025390624,323.17678125,367.56201025390624L333.62478125,335.33301025390625L415.08378125,335.33301025390625L439.87478125,428.47901025390627C442.01178125,436.43401025390625,449.35178125,441.86501025390623,457.58378125,441.58301025390625C459.04678125,441.85301025390623,460.54678125,441.85301025390623,462.01078125,441.58301025390625C470.03578125,439.51501025390627,475.55378125,432.15801025390624,475.29178125,423.8750102539062ZM344.60478125,299.91701025390626L376.83378125,195.26041025390623L405.34378125,299.91701025390626L344.60478125,299.91701025390626Z" fill="#FFFFFF" fill-opacity="1" style="mix-blend-mode:passthrough"/></g><g><path d="M209.666727734375,388.4586796875C248.786927734375,388.4586796875,280.499927734375,356.7446796875,280.499927734375,317.6246796875L280.499927734375,184.8124796875C280.777927734375,165.96947968749998,273.28392773437497,147.84357968749998,259.780927734375,134.6978796875C246.635927734375,121.19501968750001,228.50972773437502,113.7012676875,209.666727734375,113.9791414775C190.82372773437498,113.7012556875,172.69782773437498,121.1950096875,159.552127734375,134.6978796875C146.049257734375,147.84357968749998,138.555511734375,165.96947968749998,138.833393574375,184.8124796875L138.833393574375,317.6246796875C138.833401684375,356.7446796875,170.546527734375,388.4586796875,209.666727734375,388.4586796875ZM174.250027734375,184.8124796875C174.250027734375,165.2523796875,190.106627734375,149.3957796875,209.666727734375,149.3957796875C229.22682773437498,149.3957796875,245.082927734375,165.2523796875,245.082927734375,184.8124796875L245.082927734375,317.6246796875C245.082927734375,337.18467968749997,229.22682773437498,353.0416796875,209.666727734375,353.0416796875C190.106627734375,353.0416796875,174.250027734375,337.18467968749997,174.250027734375,317.6246796875L174.250027734375,184.8124796875Z" fill="#FFFFFF" fill-opacity="1" style="mix-blend-mode:passthrough"/></g></g></g></svg>